PathFileType	4	(x/y/z)	S09_P20_T03
DataRate	CameraRate	NumFrames	NumMarkers	Units	OrigDataRate	OrigDataStartFrame	OrigNumFrames
240	240	5	51	mm	240	52	409
Frame#	Time	Sternum			R.Acromium			L.Acromium			Top.Head			R.ASIS			L.ASIS			R.PSIS			L.PSIS			R.Great.Tro			L.Great.Tro			R.Iliac.Crest			L.Iliac.Crest			V.Sacral			R.Thigh.Upper.Post			R.Thigh.Lower.Ant			R.Thigh.Lower.Post			R.Thigh.Upper.Ant			R.Knee.Lat			R.Knee.Med			R.Shank.Upper.Post			R.Shank.Lower.Ant			R.Shank.Lower.Post			R.Shank.Upper.Ant			R.Ankle.Lat			R.Ankle.Med			R.Heel.Upper			R.Heel.Med			R.Heel.Lat			R.Toe.Lat			R.Toe.Med			R.Toe.Tip			L.Thigh.Upper.Post			L.Thigh.Lower.Ant			L.Thigh.Lower.Post			L.Thigh.Upper.Ant			L.Knee.Lat			L.Knee.Med			L.Shank.Upper.Post			L.Shank.Lower.Ant			L.Shank.Lower.Post			L.Shank.Upper.Ant			L.Ankle.Lat			L.Ankle.Med			L.Heel.Upper			L.Heel.Med			L.Heel.Lat			L.Toe.Lat			L.Toe.Med			L.Toe.Tip			Cervical.Spine			Back			
		X1	Y1	Z1	X2	Y2	Z2	X3	Y3	Z3	X4	Y4	Z4	X5	Y5	Z5	X6	Y6	Z6	X7	Y7	Z7	X8	Y8	Z8	X9	Y9	Z9	X10	Y10	Z10	X11	Y11	Z11	X12	Y12	Z12	X13	Y13	Z13	X14	Y14	Z14	X15	Y15	Z15	X16	Y16	Z16	X17	Y17	Z17	X18	Y18	Z18	X19	Y19	Z19	X20	Y20	Z20	X21	Y21	Z21	X22	Y22	Z22	X23	Y23	Z23	X24	Y24	Z24	X25	Y25	Z25	X26	Y26	Z26	X27	Y27	Z27	X28	Y28	Z28	X29	Y29	Z29	X30	Y30	Z30	X31	Y31	Z31	X32	Y32	Z32	X33	Y33	Z33	X34	Y34	Z34	X35	Y35	Z35	X36	Y36	Z36	X37	Y37	Z37	X38	Y38	Z38	X39	Y39	Z39	X40	Y40	Z40	X41	Y41	Z41	X42	Y42	Z42	X43	Y43	Z43	X44	Y44	Z44	X45	Y45	Z45	X46	Y46	Z46	X47	Y47	Z47	X48	Y48	Z48	X49	Y49	Z49	X50	Y50	Z50	X51	Y51	Z51	

52	0.2125	NaN	NaN	NaN	-1175.3	1430	471.84	-1175.4	1428.5	162.67	-1169.4	1735.3	317.59	-1114.8	1006.5	433.85	-1110.8	1022.7	187.78	-1339.6	1029.2	356.93	-1332.2	1036.7	267.76	-1195.5	916.88	504.31	-1177.2	932.32	118.87	-1205.2	1082.7	478.54	-1217.2	1115	156.31	-1350.4	995.68	306.53	-1168.1	672.13	493.62	-1080.7	578.24	478.54	-1161.6	580.14	472.29	-1096.7	666.42	495.95	-1106.5	495.06	468.18	-1096.6	479.65	346.47	-1273.8	426.44	465.35	NaN	NaN	NaN	-1334.8	381.19	452.4	-1223.8	384.42	472.5	-1461.5	248.2	430.69	-1420.5	225.2	352.68	-1508.9	287.3	369.06	-1521.6	259.23	337.75	-1539.6	274.8	401.78	-1469.9	131.34	469.75	-1427	89.125	377.18	-1391.8	68.086	423.08	-1190.4	664.84	169.73	-1089	587.06	176.36	-1160.3	583.64	194	-1119.4	667.17	149.34	-1090.4	507.15	192.73	-1073.6	527.76	322.3	-1128	372.57	184.54	-1062.1	285.68	202.46	-1125.3	295.42	194.07	-1065.9	363.08	193.7	-1099	101.59	225.23	-1082.6	97.51	318.19	-1167.1	67.892	281.5	-1153.4	45.974	314.03	-1167.6	38.582	254.01	-995.62	43.384	193.73	-956.28	48.563	300.74	-907.66	68.607	240.46	-1262.5	1482.3	328.23	-1317.7	1218	314.52
53	0.21667	NaN	NaN	NaN	-1170.3	1430.6	471.54	-1169.8	1429.2	162.32	-1164	1736	317.28	-1109.7	1007.2	433.17	-1106	1023.3	187.01	-1334.7	1029.8	356.41	-1327.3	1037.4	267.24	-1190.4	917.57	503.64	-1172.5	932.92	118.18	-1200.2	1083.2	478.03	-1212.5	1115.7	155.79	-1345.5	996.33	306.01	-1159.8	673.42	493.42	-1071.2	580.47	478.55	-1151.9	581.41	472.4	-1088.2	668.55	495.79	-1096	497.03	468.31	-1086.7	481.98	346.34	-1262.8	427.7	465.25	-1268.5	337.71	459.12	-1323.6	382.29	452.31	-1212.8	385.94	472.41	-1449.9	249.35	430.44	-1409.1	226.15	352.5	-1497.7	287.56	368.65	-1510.4	259.14	337.67	-1528	275.23	401.6	-1457	132.94	470.41	-1414.3	90.306	377.89	-1378.9	69.507	423.87	-1187.4	665.5	169.49	-1086.4	587.09	176.04	-1157.8	584.13	193.81	-1116.3	667.36	149.04	-1088.2	507.09	192.53	-1071.5	527.68	322.09	-1126.7	372.68	184.51	-1061.1	285.48	202.34	-1124.2	295.54	194.03	-1064.6	362.87	193.54	-1098.8	101.62	225.32	-1082.5	97.433	318.25	-1167	67.984	281.55	-1153.3	46.003	314.05	-1167.5	38.723	254.04	-995.57	43.36	193.72	-956.2	48.214	300.81	-907.57	68.231	240.54	-1257.1	1483	327.79	-1312.7	1218.8	313.86
54	0.22083	NaN	NaN	NaN	-1165.2	1431.2	471.26	-1164.2	1430	161.99	-1158.5	1736.7	316.98	-1104.6	1007.9	432.52	-1101.2	1024	186.27	-1329.8	1030.5	355.86	-1322.3	1038.1	266.68	-1185.4	918.32	502.96	-1167.9	933.51	117.5	-1195.1	1083.9	477.5	-1207.7	1116.5	155.27	-1340.6	997.04	305.47	-1151.6	674.79	493.23	-1061.8	582.8	478.47	-1142.3	582.79	472.53	-1079.8	670.75	495.57	-1085.5	499.08	468.37	-1076.5	484.37	346.18	-1251.8	428.89	465.11	-1258.3	338.45	458.88	-1312.5	383.21	452.18	-1201.8	387.45	472.28	-1438.1	250.2	430.18	-1397.6	226.83	352.34	-1486.4	287.43	368.21	-1499.2	258.64	337.6	-1516.2	275.22	401.4	-1443.9	134.25	471.07	-1401.2	91.271	378.62	-1365.6	70.818	424.69	-1184.4	666.19	169.31	-1083.9	587.15	175.72	-1155.3	584.64	193.64	-1113.3	667.57	148.78	-1086.1	507.04	192.34	-1069.3	527.61	321.89	-1125.5	372.8	184.48	-1060.2	285.31	202.23	-1123.1	295.69	193.99	-1063.4	362.67	193.38	-1098.6	101.66	225.42	-1082.3	97.373	318.3	-1166.9	68.087	281.6	-1153.3	46.039	314.08	-1167.5	38.872	254.07	-995.51	43.336	193.71	-956.12	47.881	300.88	-907.48	67.87	240.62	-1251.8	1483.8	327.37	-1307.6	1219.6	313.19
55	0.225	NaN	NaN	NaN	-1160.2	1431.8	470.99	-1158.7	1430.7	161.67	-1153.1	1737.4	316.69	-1099.6	1008.6	431.9	-1096.3	1024.6	185.57	-1324.9	1031.3	355.28	-1317.4	1038.9	266.09	-1180.4	919.13	502.29	-1163.2	934.09	116.86	-1190	1084.5	476.94	-1202.8	1117.2	154.75	-1335.7	997.79	304.9	-1143.3	676.24	493.06	-1052.4	585.22	478.32	-1132.7	584.28	472.67	-1071.3	673.04	495.28	-1075.1	501.22	468.38	-1066.2	486.8	346	-1240.9	430	464.92	-1247.8	339.21	458.65	-1301.3	383.96	452.02	-1190.8	388.93	472.12	-1426.2	250.75	429.92	-1386	227.26	352.19	-1475.1	286.92	367.78	-1487.8	257.74	337.53	-1504.3	274.77	401.18	-1430.4	135.28	471.73	-1387.7	92.017	379.37	-1352	72.007	425.54	-1181.4	666.89	169.17	-1081.3	587.24	175.4	-1152.8	585.16	193.51	-1110.4	667.79	148.56	-1084.1	507.02	192.16	-1067.2	527.55	321.7	-1124.3	372.93	184.46	-1059.3	285.17	202.13	-1122	295.84	193.93	-1062.2	362.49	193.23	-1098.4	101.71	225.51	-1082.2	97.329	318.36	-1166.9	68.201	281.65	-1153.2	46.081	314.11	-1167.4	39.028	254.09	-995.46	43.311	193.71	-956.05	47.566	300.95	-907.4	67.523	240.69	-1246.5	1484.6	326.95	-1302.6	1220.4	312.52
56	0.22917	NaN	NaN	NaN	-1155.2	1432.4	470.72	-1153.1	1431.5	161.35	-1147.7	1738.2	316.41	-1094.6	1009.4	431.31	-1091.5	1025.2	184.9	-1320	1032.1	354.67	-1312.5	1039.7	265.47	-1175.4	920	501.63	-1158.7	934.66	116.25	-1184.8	1085.2	476.35	-1198	1118	154.21	-1330.8	998.59	304.3	-1135.1	677.75	492.9	-1043.1	587.72	478.09	-1123.2	585.85	472.82	-1063	675.39	494.94	-1064.7	503.44	468.33	-1055.8	489.27	345.79	-1230	431.03	464.7	-1236.9	339.96	458.41	-1290.1	384.53	451.82	-1179.8	390.39	471.92	-1414.2	251	429.66	-1374.1	227.43	352.06	-1463.6	286.04	367.34	-1476.2	256.45	337.47	-1492.3	273.88	400.95	-1416.7	136.02	472.39	-1373.9	92.544	380.11	-1337.9	73.067	426.41	-1178.5	667.61	169.07	-1078.8	587.35	175.08	-1150.4	585.69	193.39	-1107.5	668.03	148.36	-1082.2	507.01	191.98	-1065.2	527.51	321.52	-1123.1	373.07	184.44	-1058.4	285.04	202.05	-1121	296.01	193.87	-1061	362.33	193.09	-1098.2	101.76	225.6	-1082	97.304	318.42	-1166.8	68.327	281.69	-1153.2	46.132	314.13	-1167.3	39.19	254.11	-995.41	43.283	193.71	-955.97	47.27	301.01	-907.31	67.189	240.75	-1241.1	1485.4	326.55	-1297.5	1221.3	311.85
